<?xml version="1.0" encoding="utf-8"?>
<svg viewBox="0 0 500 500" xmlns="http://www.w3.org/2000/svg" xmlns:bx="https://boxy-svg.com">
  <path style="fill: rgb(216, 216, 216); stroke: rgb(0, 0, 0);" transform="matrix(-0.998465, 0.055386, -0.087432, -1.576165, 964.404968, 683.383789)" d="M 486.613 267.201 A 77.005 77.005 0 1 1 486.613 344.206 A 63.284 63.284 0 1 0 486.613 267.201 Z" bx:shape="crescent 553.301 305.703 77.005 300 0.804 1@c3f265ee"/>
  <path style="fill: rgb(216, 216, 216); stroke: rgb(0, 0, 0);" d="M 118.784 188.377 L 270.51 189.021 L 285.947 212.817 L 277.983 241.484 L 122.878 238.001 Z M 46.276 134.402 C 48.916 133.893 52.632 133.97 55.401 135.011 C 58.217 136.069 60.651 138.14 63.004 140.789 C 65.793 143.929 68.82 151.197 70.607 153.259 C 71.506 154.295 71.994 153.899 72.736 154.779 C 73.875 156.13 75.783 159.116 76.386 161.47 C 76.979 163.784 77.156 166.288 76.386 168.77 C 75.494 171.645 73.43 175.612 70.607 177.59 C 67.582 179.709 62.552 181.459 58.442 180.631 C 53.749 179.686 48.019 175.386 44.147 170.594 C 39.753 165.157 34.429 154.612 34.415 148.697 C 34.404 144.115 37.89 139.817 40.194 137.444 C 41.991 135.592 43.932 134.854 46.276 134.402 Z M 40.861 188.334 C 43.116 187.979 45.196 188.001 47.552 188.942 C 50.498 190.12 54.223 193.107 56.981 195.938 C 59.823 198.855 62.909 202.984 64.28 206.278 C 65.421 209.02 66.13 211.357 65.496 214.186 C 64.721 217.647 61.581 223.184 58.501 225.439 C 55.682 227.503 51.16 228.013 48.161 227.872 C 45.605 227.752 43.709 226.899 41.47 225.439 C 38.746 223.662 35.55 220.246 33.258 217.227 C 31.002 214.256 28.619 210.544 27.784 207.495 C 27.079 204.923 27.013 202.677 27.784 200.195 C 28.676 197.321 31.211 193.362 33.562 191.376 C 35.658 189.605 38.455 188.713 40.861 188.334 Z M 47.655 234.031 C 50.672 233.846 54.03 234.947 56.779 236.464 C 59.628 238.037 62.822 241.528 64.382 243.459 C 65.429 244.755 65.612 246.089 66.207 246.804 C 66.619 247.3 66.75 247.033 67.423 247.717 C 69.203 249.524 76.175 256.547 78.372 261.099 C 80.297 265.084 81.577 269.555 80.805 273.264 C 80.038 276.952 76.944 281.331 73.81 283.301 C 70.732 285.236 65.729 285.717 62.253 285.126 C 58.979 284.568 55.247 281.815 53.433 280.259 C 52.217 279.216 52.071 278.001 51.304 277.218 C 50.638 276.537 50.253 276.808 49.175 275.697 C 46.605 273.049 37.645 262.846 35.185 257.449 C 33.346 253.416 32.754 249.839 33.36 246.5 C 33.947 243.269 36.118 239.762 38.53 237.68 C 40.905 235.632 44.589 234.219 47.655 234.031 Z"/>
</svg>