<?xml version="1.0" encoding="utf-8"?>
<svg viewBox="0 0 500 500" xmlns="http://www.w3.org/2000/svg">
  <path style="fill: rgb(216, 216, 216); stroke: rgb(0, 0, 0);" d="M 140.97 47.511 C 177.715 61.293 214.191 78.755 246.707 100.443 C 262.712 111.118 272.885 130.292 284.423 144.719 C 288.37 149.655 314.716 169.189 312.297 176.153 C 307.768 189.191 292.353 197.569 281.185 203.943 C 277.729 205.915 270.997 202.033 267.497 203.943 C 224.138 227.599 180.587 226.81 131.889 226.81 C 131.89 257.307 131.889 287.805 131.889 318.302 C 131.889 358.524 127.017 405.934 136.812 445.056 C 138.111 450.244 135.184 467.64 138.45 472.219 C 141.245 476.138 155.273 456.58 156.47 455.685 C 167.295 447.592 178.578 438.897 190.91 432.728 C 207.383 424.489 222.471 413.105 238.461 404.849 C 243.32 402.34 256.576 404.849 261.588 404.849 C 279.409 404.849 297.229 404.849 315.049 404.849 C 333.566 363.223 359.001 327.381 387.073 291.286 C 397.003 278.519 404.655 255.478 419.771 247.152 C 428.721 242.223 445.425 251.732 454.584 247.152 C 465.685 241.602 464.252 234.031 477.536 234.031 C 397.578 234.031 317.895 237.311 237.853 237.311 C 226.92 237.311 215.988 237.311 205.055 237.311 C 194.67 237.311 184.285 237.311 173.9 237.311 C 147.655 237.311 91.587 228.006 75.653 256.889 C 74.292 259.356 76.707 264.131 75.653 266.739 C 70.224 280.167 65.645 293.202 62.532 307.735 C 59.238 323.113 57.614 336.804 57.614 352.341 C 106.999 368.782 149.071 375.355 200.458 375.355 C 210.527 375.355 227.465 381.994 235.776 378.494 C 246.663 373.907 252.01 357.173 262.551 351.714 C 268.918 348.416 283.762 351.714 291.181 351.714 C 311.528 275.435 333.993 203.029 365.65 130.668 C 376.156 106.652 385.497 82.169 396.81 58.517 C 403.77 43.964 416.486 27.336 416.486 10.418 C 357.333 45.907 300.641 86.577 243.101 124.943 C 206.563 149.306 168.817 178.133 126.674 192.176 C 107.18 198.672 86.929 193.808 67.243 197.094 C 47.493 200.39 30.561 203.655 10.412 203.655 C 86.814 230.946 159.494 238.856 222.037 294.93 C 255.176 324.642 285.306 357.472 318.782 386.758 C 323.835 391.178 345.314 416.889 352.014 416.889"/>
</svg>